<svg xmlns="http://www.w3.org/2000/svg" width="1024" height="1024" viewBox="0 0 1024 1024">
<g>
<path d="M 0.00 0.00 L 1024.00 0.00 L 1024.00 1024.00 L 0.00 1024.00 ZM 492.00 965.35 C539.01,968.53 600.28,959.86 652.11,942.68 C674.68,935.20 684.60,931.18 705.50,921.08 C735.71,906.47 757.80,893.01 784.71,872.81 C843.03,829.02 892.67,766.95 923.43,699.36 C971.02,594.76 975.99,467.28 936.69,359.35 C922.83,321.27 908.94,293.53 887.48,261.00 C824.03,164.82 731.69,98.09 624.00,70.60 C565.32,55.62 502.55,53.07 438.50,63.07 C359.27,75.44 281.95,111.45 218.50,165.53 C202.63,179.06 175.03,207.32 161.88,223.50 C107.74,290.15 73.68,369.03 63.01,452.48 C53.72,525.12 61.73,601.72 85.50,667.50 C96.80,698.75 109.67,724.62 129.28,755.50 C187.41,847.00 281.32,917.05 386.77,947.59 C422.04,957.81 449.72,962.48 492.00,965.35 ZM 545.00 950.53 C473.44,956.85 391.77,940.92 321.50,906.94 C207.76,851.94 121.74,749.67 89.62,631.25 C78.41,589.89 74.67,560.37 74.66,513.00 C74.64,471.20 77.15,447.84 85.54,411.50 C107.21,317.63 159.58,233.49 235.64,170.37 C291.67,123.87 362.97,90.87 434.00,78.56 C498.88,67.31 565.94,69.78 624.42,85.56 C693.54,104.22 757.56,140.51 810.15,190.84 C880.66,258.31 928.54,349.54 942.94,443.86 C946.77,468.89 947.50,480.03 947.50,513.00 C947.50,545.99 946.75,557.32 942.95,582.00 C922.74,713.06 842.82,827.93 725.50,894.55 C672.61,924.58 606.41,945.11 545.00,950.53 ZM 709.74 540.41 C710.07,540.73 727.83,541.00 749.22,541.00 L 788.11 541.00 L 790.44 535.73 C797.90,518.86 805.73,485.49 808.07,460.56 C810.01,439.92 808.78,401.06 805.60,382.50 C800.36,351.91 790.91,321.73 779.10,297.84 C772.62,284.74 772.44,284.49 768.97,284.20 C766.09,283.96 764.12,284.84 758.23,288.98 C740.91,301.13 727.80,324.50 720.89,355.50 C718.73,365.18 718.64,367.88 718.00,440.50 C717.35,513.39 717.27,515.72 715.16,523.18 C713.97,527.40 712.13,532.88 711.07,535.34 C710.01,537.80 709.42,540.08 709.74,540.41 ZM 233.90 536.28 L 235.93 541.00 L 274.30 541.00 C295.40,541.00 312.91,540.76 313.20,540.46 C313.50,540.17 312.44,536.17 310.86,531.58 C309.28,526.99 307.47,521.05 306.85,518.37 C306.10,515.12 305.49,487.99 305.02,437.00 C304.37,364.96 304.21,359.97 302.28,351.50 C298.22,333.63 292.99,320.90 284.33,307.78 C273.77,291.81 258.46,280.78 252.38,284.77 C251.76,285.17 249.68,288.65 247.75,292.50 C224.86,338.24 214.00,387.35 215.35,439.00 C215.92,461.03 217.34,474.37 221.07,492.93 C223.32,504.08 230.49,528.30 233.90,536.28 ZM 325.53 538.68 C327.04,541.00 327.08,541.00 350.36,541.00 C363.18,541.00 373.93,540.74 374.24,540.42 C374.56,540.11 373.69,537.29 372.31,534.17 C370.93,531.05 368.84,525.12 367.68,521.00 C365.60,513.65 365.55,511.49 364.97,410.00 C364.39,309.95 364.31,306.20 362.30,297.50 C357.69,277.50 350.55,261.80 339.24,246.78 C331.43,236.41 322.95,228.54 313.22,222.63 C306.95,218.82 303.49,218.16 300.73,220.25 C298.62,221.85 284.74,249.59 277.62,266.43 L 272.15 279.37 L 279.00 285.70 C299.58,304.76 311.86,332.91 314.98,368.19 C315.53,374.41 315.99,408.66 315.99,444.29 C316.00,499.61 316.23,510.21 317.59,516.79 C319.21,524.63 322.79,534.50 325.53,538.68 ZM 650.30 539.25 C649.80,540.88 651.35,541.00 673.36,541.00 L 696.95 541.00 L 698.58 537.84 C700.81,533.52 703.78,524.82 705.68,517.00 C707.02,511.52 707.38,498.78 707.97,435.50 C708.75,352.82 708.45,356.84 715.56,334.50 C721.62,315.48 734.65,294.37 746.04,285.13 C749.04,282.69 751.64,280.12 751.81,279.42 C752.25,277.61 742.10,254.20 732.88,235.77 C726.31,222.65 724.58,219.93 722.40,219.39 C719.21,218.59 714.76,220.59 706.29,226.62 C688.53,239.28 673.73,260.46 666.21,284.00 C665.01,287.73 664.05,290.65 663.27,293.63 C660.00,306.15 660.00,319.53 659.98,397.29 L 659.98 404.36 C659.96,508.12 659.77,511.99 653.99,528.50 C652.25,533.45 650.59,538.29 650.30,539.25 ZM 598.00 540.36 C598.00,540.71 606.77,541.00 617.49,541.00 L 636.97 541.00 L 639.98 535.05 C641.63,531.77 644.21,525.13 645.71,520.30 L 648.45 511.50 L 649.04 408.00 C649.63,306.01 649.67,304.37 651.83,295.50 C656.45,276.46 662.27,262.54 671.57,248.26 C677.63,238.94 690.39,225.12 698.27,219.31 L 703.04 215.80 L 681.34 193.65 C660.13,171.99 659.55,171.50 655.59,171.50 C651.67,171.50 651.35,171.76 645.81,179.50 C635.67,193.67 625.30,216.99 619.80,238.00 L 617.58 246.50 L 617.04 375.00 L 616.50 503.50 L 614.35 509.00 C610.10,519.86 608.73,522.62 603.40,531.11 C600.43,535.84 598.00,540.01 598.00,540.36 ZM 386.18 538.25 L 388.14 541.00 L 406.90 541.00 C417.22,541.00 425.94,540.72 426.28,540.38 C426.62,540.04 424.62,536.39 421.84,532.26 C419.05,528.14 415.28,521.47 413.44,517.44 C412.51,515.41 411.72,513.76 411.04,512.07 C406.99,501.97 406.99,490.26 407.00,385.57 C407.00,381.20 407.00,376.66 407.00,371.95 C407.00,252.62 406.94,248.51 404.99,238.97 C401.08,219.75 391.76,197.75 380.33,180.75 C376.73,175.39 373.49,170.99 373.14,170.99 C372.79,170.98 371.46,170.70 370.20,170.36 C368.24,169.83 365.44,172.17 351.37,186.12 C342.28,195.13 332.11,205.56 328.77,209.30 L 322.70 216.10 L 325.10 217.74 C330.19,221.21 343.54,234.84 348.98,242.12 C359.17,255.74 367.88,275.06 372.65,294.60 C374.16,300.75 374.41,312.78 374.98,405.50 C375.54,495.85 375.83,510.36 377.22,516.06 C379.07,523.65 383.36,534.27 386.18,538.25 ZM 256.00 586.00 C257.07,587.99 258.09,588.00 469.54,588.00 L 682.00 588.00 L 682.00 573.08 C682.00,564.88 682.27,557.45 682.61,556.58 C683.09,555.32 684.83,555.00 691.08,555.00 L 698.95 555.00 L 699.50 587.50 L 702.25 587.82 L 705.00 588.13 L 705.00 551.00 L 471.96 551.00 C239.24,551.00 238.93,551.00 240.00,553.00 C241.05,554.97 242.09,555.00 301.04,555.00 L 361.00 555.00 L 361.00 584.00 L 307.96 584.00 C255.24,584.00 254.94,584.01 256.00,586.00 ZM 412.00 638.91 C456.11,640.07 572.62,640.11 613.00,639.00 C702.36,636.52 759.40,632.40 742.28,629.66 C703.53,623.46 545.52,619.45 436.50,621.90 C340.65,624.05 277.46,627.70 279.49,630.98 C281.05,633.50 339.86,637.02 412.00,638.91 ZM 445.00 686.00 C487.31,686.95 579.36,686.39 618.50,684.95 C664.29,683.26 707.86,680.10 713.34,678.07 C717.43,676.55 698.85,674.41 661.00,672.03 C596.42,667.97 437.98,667.96 366.50,672.01 C342.65,673.37 314.51,675.88 311.75,676.90 C309.62,677.68 309.61,677.74 311.52,678.30 C320.84,681.05 382.42,684.61 445.00,686.00 ZM 495.78 855.03 C506.66,857.02 523.42,854.37 533.92,849.01 C543.08,844.34 542.68,845.04 546.50,826.74 C548.43,817.52 550.00,809.31 550.00,808.49 C550.00,807.22 547.17,807.00 531.07,807.00 L 512.14 807.00 L 511.03 812.37 C510.41,815.32 509.82,819.04 509.71,820.62 L 509.50 823.50 L 517.33 823.79 L 525.16 824.09 L 524.48 828.29 C524.10,830.61 523.50,832.82 523.13,833.22 C522.77,833.61 519.55,834.69 515.98,835.62 C505.21,838.44 497.26,836.14 491.46,828.54 C484.01,818.77 489.26,799.01 501.29,791.61 C505.23,789.19 507.47,788.58 513.91,788.21 C523.44,787.66 527.55,788.89 532.38,793.71 L 536.02 797.35 L 544.48 791.54 L 552.95 785.73 L 550.99 782.98 C542.98,771.73 525.60,766.69 506.14,769.98 C486.41,773.30 469.87,788.85 465.94,807.78 C464.12,816.54 465.22,828.89 468.41,835.41 C473.10,844.99 484.16,852.92 495.78,855.03 ZM 677.00 555.00 L 677.00 584.00 L 554.00 584.00 L 554.00 555.00 ZM 329.10 854.45 C337.64,856.30 341.64,856.30 350.73,854.42 C360.05,852.50 366.12,849.53 372.41,843.82 L 377.18 839.50 L 370.66 833.75 C367.08,830.59 363.89,828.00 363.58,828.00 C363.27,828.00 361.02,829.52 358.59,831.38 C351.12,837.08 340.47,838.37 332.95,834.47 C331.38,833.66 328.84,831.35 327.30,829.33 C324.90,826.18 324.45,824.55 324.15,817.89 C323.84,811.16 324.15,809.35 326.45,804.31 C331.47,793.35 339.41,788.03 350.78,788.01 C358.31,788.00 362.62,789.63 366.76,794.06 L 369.84 797.36 L 377.92 792.05 C382.36,789.13 386.00,786.42 386.00,786.01 C386.00,784.86 380.40,778.11 377.67,775.96 C366.61,767.25 343.66,766.63 327.25,774.60 C316.64,779.75 307.07,790.76 302.94,802.58 C300.19,810.44 299.88,823.42 302.26,831.16 C305.76,842.52 316.31,851.68 329.10,854.45 ZM 455.50 728.93 C512.84,731.23 595.83,729.16 636.00,724.42 C657.85,721.84 657.24,720.75 632.45,718.06 C600.57,714.60 571.34,713.52 512.00,713.60 C454.02,713.68 415.68,715.19 387.61,718.52 C373.73,720.17 369.94,721.27 374.32,722.36 C382.51,724.42 421.26,727.56 455.50,728.93 ZM 407.25 853.27 C409.04,853.49 411.10,853.52 411.83,853.33 C412.56,853.15 416.21,853.00 419.93,853.00 L 426.70 853.00 L 439.23 789.00 L 452.60 789.00 C465.64,789.00 465.97,788.95 466.47,786.75 C468.35,778.47 468.95,775.23 468.98,773.25 L 469.00 771.00 L 431.57 771.00 C396.78,771.00 394.10,771.12 393.62,772.75 C392.92,775.17 391.00,786.08 391.00,787.68 C391.00,788.70 393.92,789.00 404.00,789.00 C411.15,789.00 417.00,789.13 417.00,789.30 C417.00,789.46 416.06,793.85 414.92,799.05 C412.93,808.13 404.00,851.84 404.00,852.54 C404.00,852.72 405.46,853.05 407.25,853.27 ZM 557.67 580.34 C558.05,580.71 584.26,580.90 615.92,580.76 L 673.50 580.50 L 673.78 569.25 L 674.07 558.00 L 557.00 558.00 L 557.00 568.83 C557.00,574.79 557.30,579.97 557.67,580.34 ZM 248.83 572.26 L 252.88 581.02 L 305.19 580.76 L 357.50 580.50 L 358.07 558.00 L 241.95 558.00 L 243.37 560.75 C244.15,562.26 246.61,567.44 248.83,572.26 ZM 694.72 873.97 C704.93,876.53 717.03,872.77 722.66,865.27 C726.53,860.13 727.68,856.21 732.97,830.00 C735.25,818.72 737.36,808.49 737.67,807.25 C738.17,805.21 737.86,805.00 734.31,805.00 C732.16,805.00 729.87,805.53 729.22,806.18 C728.32,807.08 727.59,806.94 726.10,805.59 C723.21,802.97 713.47,802.35 707.33,804.39 C702.37,806.04 695.52,812.00 693.05,816.80 C690.66,821.47 689.02,828.66 689.01,834.54 C688.99,845.99 695.08,853.03 704.98,852.98 C709.50,852.96 717.15,850.18 718.44,848.10 C719.98,845.60 720.73,847.27 719.84,851.24 C718.16,858.68 715.44,863.56 711.67,865.90 C706.92,868.83 699.51,868.91 693.70,866.10 C691.32,864.94 689.07,864.00 688.71,864.00 C688.35,864.00 687.36,865.34 686.52,866.97 C685.01,869.88 685.04,869.97 687.96,871.48 C689.60,872.32 692.64,873.44 694.72,873.97 ZM 741.70 587.36 C742.08,587.74 748.04,587.93 754.95,587.78 L 767.50 587.50 L 775.24 572.00 C779.49,563.47 783.41,555.26 783.94,553.75 L 784.90 551.00 L 741.00 551.00 L 741.00 568.83 C741.00,578.64 741.31,586.98 741.70,587.36 ZM 585.00 850.56 C585.00,851.77 588.38,852.00 605.89,852.00 L 626.77 852.00 L 627.65 846.00 L 611.89 846.00 C603.21,846.00 595.86,845.59 595.56,845.09 C595.06,844.29 598.16,826.36 599.59,821.75 C600.08,820.19 601.72,820.00 615.07,820.00 C627.29,820.00 630.00,819.74 630.00,818.58 C630.00,817.80 630.25,816.51 630.56,815.71 C631.02,814.50 628.60,814.14 616.01,813.53 C605.25,813.01 601.03,812.47 601.35,811.65 C601.60,811.02 602.60,806.11 603.58,800.75 L 605.35 791.00 L 638.94 791.00 L 639.79 787.75 L 640.63 784.50 L 619.67 784.23 C608.14,784.08 598.53,784.13 598.32,784.34 C597.83,784.83 585.00,848.62 585.00,850.56 ZM 634.52 849.75 C634.00,851.83 634.29,852.00 638.48,852.00 C640.97,852.00 643.00,851.89 643.01,851.75 C643.02,851.61 644.54,844.14 646.40,835.14 C650.13,817.06 651.29,814.69 658.02,811.25 C663.50,808.45 666.97,808.40 670.37,811.07 C673.84,813.81 673.79,816.90 670.00,835.34 C668.35,843.36 667.00,850.42 667.00,851.02 C667.00,851.69 668.63,852.00 671.20,851.81 L 675.39 851.50 L 678.66 836.50 C680.46,828.25 681.94,818.92 681.96,815.77 C681.99,810.82 681.60,809.59 679.08,806.77 C676.25,803.59 675.94,803.50 668.16,803.50 C660.72,803.50 659.84,803.73 655.46,806.82 L 650.75 810.14 L 651.41 807.51 C652.05,804.95 651.96,804.89 647.79,805.19 L 643.51 805.50 L 639.30 826.50 C636.98,838.05 634.83,848.51 634.52,849.75 ZM 714.60 845.09 C708.41,847.91 704.36,847.31 700.50,843.01 C697.82,840.03 697.72,828.54 700.31,821.81 C704.82,810.11 719.28,804.97 725.10,813.01 C726.85,815.42 726.84,815.86 724.80,826.50 C722.40,838.99 720.53,842.40 714.60,845.09 ZM 720.00 551.00 L 720.00 588.13 L 726.50 587.50 L 726.77 569.25 L 727.05 551.00 ZM 709.71 587.38 C710.10,587.77 711.57,587.96 712.96,587.80 L 715.50 587.50 L 715.77 569.25 L 716.05 551.00 L 709.00 551.00 L 709.00 568.83 C709.00,578.64 709.32,586.99 709.71,587.38 ZM 730.71 587.38 C731.10,587.77 732.57,587.96 733.96,587.80 L 736.50 587.50 L 736.77 569.25 L 737.05 551.00 L 730.00 551.00 L 730.00 568.83 C730.00,578.64 730.32,586.99 730.71,587.38 ZM 555.00 850.87 C555.00,851.57 557.03,852.00 560.38,852.00 L 565.76 852.00 L 567.38 845.54 C568.27,841.99 569.00,838.62 569.00,838.04 C569.00,837.44 566.56,837.00 563.17,837.00 L 557.35 837.00 L 556.17 843.37 C555.53,846.87 555.00,850.24 555.00,850.87 ZM 537.80 561.25 C537.54,566.66 537.23,567.54 535.46,567.79 C532.46,568.22 532.00,567.29 532.00,560.83 L 532.00 555.00 L 538.10 555.00 ZM 547.80 561.25 C547.54,566.66 547.23,567.54 545.46,567.79 C542.46,568.22 542.00,567.29 542.00,560.83 L 542.00 555.00 L 548.10 555.00 ZM 372.80 561.25 C372.54,566.66 372.23,567.54 370.46,567.79 C367.46,568.22 367.00,567.29 367.00,560.83 L 367.00 555.00 L 373.10 555.00 ZM 406.80 561.25 C406.54,566.66 406.23,567.54 404.46,567.79 C401.46,568.22 401.00,567.29 401.00,560.83 L 401.00 555.00 L 407.10 555.00 ZM 434.80 561.25 C434.54,566.66 434.23,567.54 432.46,567.79 C429.46,568.22 429.00,567.29 429.00,560.83 L 429.00 555.00 L 435.10 555.00 ZM 462.80 561.25 C462.54,566.66 462.23,567.54 460.46,567.79 C457.46,568.22 457.00,567.29 457.00,560.83 L 457.00 555.00 L 463.10 555.00 ZM 482.80 561.25 C482.54,566.66 482.23,567.54 480.46,567.79 C477.46,568.22 477.00,567.29 477.00,560.83 L 477.00 555.00 L 483.10 555.00 ZM 472.44 561.25 C472.25,566.52 471.92,567.55 470.32,567.79 C467.48,568.23 467.00,567.23 467.00,560.83 C467.00,555.09 467.05,555.00 469.83,555.00 L 472.67 555.00 ZM 528.58 563.00 C528.51,566.73 528.15,567.55 526.46,567.79 C523.46,568.22 523.00,567.29 523.00,560.83 C523.00,555.35 523.14,555.00 525.38,555.00 C528.11,555.00 528.70,556.48 528.58,563.00 ZM 547.80 577.75 C547.54,582.66 547.20,583.54 545.46,583.79 C542.50,584.22 542.00,583.28 542.00,577.33 C542.00,572.05 542.03,572.00 545.05,572.00 L 548.10 572.00 ZM 372.80 577.75 C372.54,582.66 372.20,583.54 370.46,583.79 C367.50,584.22 367.00,583.28 367.00,577.33 C367.00,572.05 367.03,572.00 370.05,572.00 L 373.10 572.00 ZM 434.80 577.75 C434.54,582.66 434.20,583.54 432.46,583.79 C429.50,584.22 429.00,583.28 429.00,577.33 C429.00,572.05 429.03,572.00 432.05,572.00 L 435.10 572.00 ZM 482.80 577.75 C482.54,582.66 482.20,583.54 480.46,583.79 C477.50,584.22 477.00,583.28 477.00,577.33 C477.00,572.05 477.03,572.00 480.05,572.00 L 483.10 572.00 ZM 507.00 561.50 C507.00,567.77 506.91,568.00 504.50,568.00 C502.09,568.00 502.00,567.77 502.00,561.50 C502.00,555.23 502.09,555.00 504.50,555.00 C506.91,555.00 507.00,555.23 507.00,561.50 ZM 498.00 573.65 C498.00,574.48 496.62,576.53 494.94,578.21 C492.06,581.10 491.85,581.16 491.35,579.23 C491.06,578.10 489.96,576.96 488.91,576.69 C487.82,576.40 487.00,575.31 487.00,574.17 C487.00,572.38 487.65,572.14 492.50,572.14 C496.73,572.14 498.00,572.49 498.00,573.65 ZM 396.80 561.25 C396.53,566.86 396.27,567.53 394.25,567.82 C392.11,568.12 392.00,567.81 392.00,561.57 C392.00,555.20 392.08,555.00 394.55,555.00 C397.04,555.00 397.09,555.14 396.80,561.25 ZM 415.80 561.25 C415.53,566.86 415.27,567.53 413.25,567.82 C411.11,568.12 411.00,567.81 411.00,561.57 C411.00,555.20 411.08,555.00 413.55,555.00 C416.04,555.00 416.09,555.14 415.80,561.25 ZM 424.80 561.25 C424.53,566.86 424.27,567.53 422.25,567.82 C420.11,568.12 420.00,567.81 420.00,561.57 C420.00,555.20 420.08,555.00 422.55,555.00 C425.04,555.00 425.09,555.14 424.80,561.25 ZM 443.80 561.25 C443.53,566.86 443.27,567.53 441.25,567.82 C439.11,568.12 439.00,567.81 439.00,561.57 C439.00,555.20 439.08,555.00 441.55,555.00 C444.04,555.00 444.09,555.14 443.80,561.25 ZM 452.80 561.24 C452.57,565.92 452.11,567.55 450.95,567.77 C448.50,568.24 448.00,567.06 448.00,560.83 C448.00,555.25 448.11,555.00 450.55,555.00 C453.04,555.00 453.09,555.14 452.80,561.24 ZM 518.80 561.24 C518.57,565.92 518.11,567.55 516.95,567.77 C514.50,568.24 514.00,567.06 514.00,560.83 C514.00,555.25 514.11,555.00 516.55,555.00 C519.04,555.00 519.09,555.14 518.80,561.24 ZM 406.80 577.75 C406.53,582.84 406.24,583.54 404.25,583.82 C402.13,584.12 402.00,583.79 402.00,578.07 C402.00,572.23 402.10,572.00 404.55,572.00 C407.02,572.00 407.09,572.17 406.80,577.75 ZM 452.80 577.75 C452.53,582.84 452.24,583.54 450.25,583.82 C448.13,584.12 448.00,583.79 448.00,578.07 C448.00,572.23 448.10,572.00 450.55,572.00 C453.02,572.00 453.09,572.17 452.80,577.75 ZM 386.98 573.75 C386.97,574.71 385.85,576.56 384.49,577.85 C382.36,579.87 381.93,579.97 381.40,578.60 C381.06,577.72 379.93,577.00 378.89,577.00 C377.54,577.00 377.00,576.29 377.00,574.50 C377.00,572.17 377.33,572.00 382.00,572.00 C386.10,572.00 387.00,572.31 386.98,573.75 ZM 518.80 577.74 C518.58,581.97 518.09,583.56 516.95,583.77 C514.53,584.23 514.00,583.07 514.00,577.33 C514.00,572.28 514.14,572.00 516.55,572.00 C519.02,572.00 519.09,572.18 518.80,577.74 ZM 498.00 561.50 C498.00,566.25 497.64,568.00 496.67,568.00 C494.42,568.00 494.00,566.88 494.00,560.83 C494.00,555.67 494.23,555.00 496.00,555.00 C497.79,555.00 498.00,555.67 498.00,561.50 ZM 380.80 561.24 C380.57,565.92 380.11,567.55 378.95,567.77 C376.63,568.22 376.47,567.70 376.84,561.09 C377.13,555.82 377.44,555.00 379.14,555.00 C380.90,555.00 381.07,555.61 380.80,561.24 ZM 387.80 561.24 C387.56,566.25 387.15,567.55 385.75,567.81 C384.23,568.10 384.00,567.29 384.00,561.57 C384.00,555.62 384.19,555.00 386.05,555.00 C387.92,555.00 388.07,555.52 387.80,561.24 ZM 490.80 561.24 C490.56,566.25 490.15,567.55 488.75,567.81 C487.23,568.10 487.00,567.29 487.00,561.57 C487.00,555.62 487.19,555.00 489.05,555.00 C490.92,555.00 491.07,555.52 490.80,561.24 ZM 509.00 572.98 C509.00,573.51 508.17,575.31 507.16,576.98 C505.39,579.89 505.25,579.94 503.66,578.18 C502.75,577.17 502.00,575.37 502.00,574.17 C502.00,572.36 502.57,572.00 505.50,572.00 C507.42,572.00 509.00,572.44 509.00,572.98 ZM 533.60 578.60 C532.51,581.44 530.74,580.07 531.38,576.88 C531.72,575.16 532.00,573.36 532.00,572.88 C532.00,572.39 533.35,572.00 535.00,572.00 C537.38,572.00 538.00,572.43 538.00,574.09 C538.00,575.32 537.20,576.40 536.07,576.69 C535.01,576.97 533.90,577.83 533.60,578.60 ZM 396.39 578.42 C395.77,580.04 393.85,580.52 392.67,579.33 C392.30,578.97 392.00,577.17 392.00,575.33 C392.00,572.44 392.33,572.00 394.50,572.00 C396.48,572.00 397.00,572.51 397.00,574.42 C397.00,575.75 396.73,577.55 396.39,578.42 ZM 425.00 573.76 C425.00,574.80 423.89,576.70 422.53,577.98 C420.42,579.96 419.96,580.07 419.45,578.72 C418.16,575.38 419.39,572.51 422.25,572.18 C424.39,571.94 425.00,572.29 425.00,573.76 ZM 473.00 573.85 C473.00,574.86 472.18,576.43 471.19,577.33 C468.99,579.32 467.00,577.88 467.00,574.30 C467.00,572.41 467.54,572.00 470.00,572.00 C472.25,572.00 473.00,572.46 473.00,573.85 ZM 463.00 574.38 C463.00,577.44 460.68,579.55 459.28,577.76 C458.73,577.07 458.04,575.49 457.74,574.25 C457.26,572.31 457.58,572.00 460.09,572.00 C462.49,572.00 463.00,572.42 463.00,574.38 ZM 442.47 576.38 C439.78,579.08 438.00,578.24 438.00,574.27 C438.00,572.25 438.43,571.92 440.67,572.18 C443.93,572.57 444.64,574.22 442.47,576.38 ZM 416.82 574.25 C416.59,575.86 415.72,576.59 413.75,576.82 C411.38,577.09 411.00,576.78 411.00,574.57 C411.00,572.37 411.44,572.00 414.07,572.00 C416.68,572.00 417.09,572.34 416.82,574.25 ZM 529.44 576.09 C529.14,576.59 527.78,577.00 526.44,577.00 C524.50,577.00 524.00,576.48 524.00,574.50 C524.00,572.53 524.51,572.00 526.39,572.00 C528.77,572.00 530.52,574.35 529.44,576.09 Z" fill="rgb(3,35,96)"/>
<path d="M 492.00 965.35 C449.72,962.48 422.04,957.81 386.77,947.59 C281.32,917.05 187.41,847.00 129.28,755.50 C109.67,724.62 96.80,698.75 85.50,667.50 C61.73,601.72 53.72,525.12 63.01,452.48 C73.68,369.03 107.74,290.15 161.88,223.50 C175.03,207.32 202.63,179.06 218.50,165.53 C281.95,111.45 359.27,75.44 438.50,63.07 C502.55,53.07 565.32,55.62 624.00,70.60 C731.69,98.09 824.03,164.82 887.48,261.00 C908.94,293.53 922.83,321.27 936.69,359.35 C975.99,467.28 971.02,594.76 923.43,699.36 C892.67,766.95 843.03,829.02 784.71,872.81 C757.80,893.01 735.71,906.47 705.50,921.08 C684.60,931.18 674.68,935.20 652.11,942.68 C600.28,959.86 539.01,968.53 492.00,965.35 ZM 545.00 950.53 C606.41,945.11 672.61,924.58 725.50,894.55 C842.82,827.93 922.74,713.06 942.95,582.00 C946.75,557.32 947.50,545.99 947.50,513.00 C947.50,480.03 946.77,468.89 942.94,443.86 C928.54,349.54 880.66,258.31 810.15,190.84 C757.56,140.51 693.54,104.22 624.42,85.56 C565.94,69.78 498.88,67.31 434.00,78.56 C362.97,90.87 291.67,123.87 235.64,170.37 C159.58,233.49 107.21,317.63 85.54,411.50 C77.15,447.84 74.64,471.20 74.66,513.00 C74.67,560.37 78.41,589.89 89.62,631.25 C121.74,749.67 207.76,851.94 321.50,906.94 C391.77,940.92 473.44,956.85 545.00,950.53 ZM 694.72 873.97 C692.64,873.44 689.60,872.32 687.96,871.48 C685.04,869.97 685.01,869.88 686.52,866.97 C687.36,865.34 688.35,864.00 688.71,864.00 C689.07,864.00 691.32,864.94 693.70,866.10 C699.51,868.91 706.92,868.83 711.67,865.90 C715.44,863.56 718.16,858.68 719.84,851.24 C720.73,847.27 719.98,845.60 718.44,848.10 C717.15,850.18 709.50,852.96 704.98,852.98 C695.08,853.03 688.99,845.99 689.01,834.54 C689.02,828.66 690.66,821.47 693.05,816.80 C695.52,812.00 702.37,806.04 707.33,804.39 C713.47,802.35 723.21,802.97 726.10,805.59 C727.59,806.94 728.32,807.08 729.22,806.18 C729.87,805.53 732.16,805.00 734.31,805.00 C737.86,805.00 738.17,805.21 737.67,807.25 C737.36,808.49 735.25,818.72 732.97,830.00 C727.68,856.21 726.53,860.13 722.66,865.27 C717.03,872.77 704.93,876.53 694.72,873.97 ZM 714.60 845.09 C720.53,842.40 722.40,838.99 724.80,826.50 C726.84,815.86 726.85,815.42 725.10,813.01 C719.28,804.97 704.82,810.11 700.31,821.81 C697.72,828.54 697.82,840.03 700.50,843.01 C704.36,847.31 708.41,847.91 714.60,845.09 ZM 329.10 854.45 C316.31,851.68 305.76,842.52 302.26,831.16 C299.88,823.42 300.19,810.44 302.94,802.58 C307.07,790.76 316.64,779.75 327.25,774.60 C343.66,766.63 366.61,767.25 377.67,775.96 C380.40,778.11 386.00,784.86 386.00,786.01 C386.00,786.42 382.36,789.13 377.92,792.05 L 369.84 797.36 L 366.76 794.06 C362.62,789.63 358.31,788.00 350.78,788.01 C339.41,788.03 331.47,793.35 326.45,804.31 C324.15,809.35 323.84,811.16 324.15,817.89 C324.45,824.55 324.90,826.18 327.30,829.33 C328.84,831.35 331.38,833.66 332.95,834.47 C340.47,838.37 351.12,837.08 358.59,831.38 C361.02,829.52 363.27,828.00 363.58,828.00 C363.89,828.00 367.08,830.59 370.66,833.75 L 377.18 839.50 L 372.41 843.82 C366.12,849.53 360.05,852.50 350.73,854.42 C341.64,856.30 337.64,856.30 329.10,854.45 ZM 495.78 855.03 C484.16,852.92 473.10,844.99 468.41,835.41 C465.22,828.89 464.12,816.54 465.94,807.78 C469.87,788.85 486.41,773.30 506.14,769.98 C525.60,766.69 542.98,771.73 550.99,782.98 L 552.95 785.73 L 544.48 791.54 L 536.02 797.35 L 532.38 793.71 C527.55,788.89 523.44,787.66 513.91,788.21 C507.47,788.58 505.23,789.19 501.29,791.61 C489.26,799.01 484.01,818.77 491.46,828.54 C497.26,836.14 505.21,838.44 515.98,835.62 C519.55,834.69 522.77,833.61 523.13,833.22 C523.50,832.82 524.10,830.61 524.48,828.29 L 525.16 824.09 L 517.33 823.79 L 509.50 823.50 L 509.71 820.62 C509.82,819.04 510.41,815.32 511.03,812.37 L 512.14 807.00 L 531.07 807.00 C547.17,807.00 550.00,807.22 550.00,808.49 C550.00,809.31 548.43,817.52 546.50,826.74 C542.68,845.04 543.08,844.34 533.92,849.01 C523.42,854.37 506.66,857.02 495.78,855.03 ZM 407.25 853.27 C405.46,853.05 404.00,852.72 404.00,852.54 C404.00,851.84 412.93,808.13 414.92,799.05 C416.06,793.85 417.00,789.46 417.00,789.30 C417.00,789.13 411.15,789.00 404.00,789.00 C393.92,789.00 391.00,788.70 391.00,787.68 C391.00,786.08 392.92,775.17 393.62,772.75 C394.10,771.12 396.78,771.00 431.57,771.00 L 469.00 771.00 L 468.98 773.25 C468.95,775.23 468.35,778.47 466.47,786.75 C465.97,788.95 465.64,789.00 452.60,789.00 L 439.23 789.00 L 432.97 821.00 L 426.70 853.00 L 419.93 853.00 C416.21,853.00 412.56,853.15 411.83,853.33 C411.10,853.52 409.04,853.49 407.25,853.27 ZM 555.00 850.87 C555.00,850.24 555.53,846.87 556.17,843.37 L 557.35 837.00 L 563.17 837.00 C566.56,837.00 569.00,837.44 569.00,838.04 C569.00,838.62 568.27,841.99 567.38,845.54 L 565.76 852.00 L 560.38 852.00 C557.03,852.00 555.00,851.57 555.00,850.87 ZM 585.00 850.56 C585.00,848.62 597.83,784.83 598.32,784.34 C598.53,784.13 608.14,784.08 619.67,784.23 L 640.63 784.50 L 639.79 787.75 L 638.94 791.00 L 622.15 791.00 L 605.35 791.00 L 603.58 800.75 C602.60,806.11 601.60,811.02 601.35,811.65 C601.03,812.47 605.25,813.01 616.01,813.53 C628.60,814.14 631.02,814.50 630.56,815.71 C630.25,816.51 630.00,817.80 630.00,818.58 C630.00,819.74 627.29,820.00 615.07,820.00 C601.72,820.00 600.08,820.19 599.59,821.75 C598.16,826.36 595.06,844.29 595.56,845.09 C595.86,845.59 603.21,846.00 611.89,846.00 L 627.65 846.00 L 627.21 849.00 L 626.77 852.00 L 605.89 852.00 C588.38,852.00 585.00,851.77 585.00,850.56 ZM 634.52 849.75 C634.83,848.51 636.98,838.05 639.30,826.50 L 643.51 805.50 L 647.79 805.19 C651.96,804.89 652.05,804.95 651.41,807.51 L 650.75 810.14 L 655.46 806.82 C659.84,803.73 660.72,803.50 668.16,803.50 C675.94,803.50 676.25,803.59 679.08,806.77 C681.60,809.59 681.99,810.82 681.96,815.77 C681.94,818.92 680.46,828.25 678.66,836.50 L 675.39 851.50 L 671.20 851.81 C668.63,852.00 667.00,851.69 667.00,851.02 C667.00,850.42 668.35,843.36 670.00,835.34 C673.79,816.90 673.84,813.81 670.37,811.07 C666.97,808.40 663.50,808.45 658.02,811.25 C651.29,814.69 650.13,817.06 646.40,835.14 C644.54,844.14 643.02,851.61 643.01,851.75 C643.00,851.89 640.97,852.00 638.48,852.00 C634.29,852.00 634.00,851.83 634.52,849.75 ZM 455.50 728.93 C421.26,727.56 382.51,724.42 374.32,722.36 C369.94,721.27 373.73,720.17 387.61,718.52 C415.68,715.19 454.02,713.68 512.00,713.60 C571.34,713.52 600.57,714.60 632.45,718.06 C657.24,720.75 657.85,721.84 636.00,724.42 C595.83,729.16 512.84,731.23 455.50,728.93 ZM 445.00 686.00 C382.42,684.61 320.84,681.05 311.52,678.30 C309.61,677.74 309.62,677.68 311.75,676.90 C314.51,675.88 342.65,673.37 366.50,672.01 C437.98,667.96 596.42,667.97 661.00,672.03 C698.85,674.41 717.43,676.55 713.34,678.07 C707.86,680.10 664.29,683.26 618.50,684.95 C579.36,686.39 487.31,686.95 445.00,686.00 ZM 412.00 638.91 C339.86,637.02 281.05,633.50 279.49,630.98 C277.46,627.70 340.65,624.05 436.50,621.90 C545.52,619.45 703.53,623.46 742.28,629.66 C759.40,632.40 702.36,636.52 613.00,639.00 C572.62,640.11 456.11,640.07 412.00,638.91 ZM 256.00 586.00 C254.94,584.01 255.24,584.00 307.96,584.00 L 361.00 584.00 L 361.00 569.50 L 361.00 555.00 L 301.04 555.00 C242.09,555.00 241.05,554.97 240.00,553.00 C238.93,551.00 239.24,551.00 471.96,551.00 L 705.00 551.00 L 705.00 569.57 L 705.00 588.13 L 702.25 587.82 L 699.50 587.50 L 699.23 571.25 L 698.95 555.00 L 691.08 555.00 C684.83,555.00 683.09,555.32 682.61,556.58 C682.27,557.45 682.00,564.88 682.00,573.08 L 682.00 588.00 L 469.54 588.00 C258.09,588.00 257.07,587.99 256.00,586.00 ZM 372.80 577.75 L 373.10 572.00 L 370.05 572.00 C367.03,572.00 367.00,572.05 367.00,577.33 C367.00,583.28 367.50,584.22 370.46,583.79 C372.20,583.54 372.54,582.66 372.80,577.75 ZM 406.80 577.75 C407.09,572.17 407.02,572.00 404.55,572.00 C402.10,572.00 402.00,572.23 402.00,578.07 C402.00,583.79 402.13,584.12 404.25,583.82 C406.24,583.54 406.53,582.84 406.80,577.75 ZM 434.80 577.75 L 435.10 572.00 L 432.05 572.00 C429.03,572.00 429.00,572.05 429.00,577.33 C429.00,583.28 429.50,584.22 432.46,583.79 C434.20,583.54 434.54,582.66 434.80,577.75 ZM 452.80 577.75 C453.09,572.17 453.02,572.00 450.55,572.00 C448.10,572.00 448.00,572.23 448.00,578.07 C448.00,583.79 448.13,584.12 450.25,583.82 C452.24,583.54 452.53,582.84 452.80,577.75 ZM 482.80 577.75 L 483.10 572.00 L 480.05 572.00 C477.03,572.00 477.00,572.05 477.00,577.33 C477.00,583.28 477.50,584.22 480.46,583.79 C482.20,583.54 482.54,582.66 482.80,577.75 ZM 518.80 577.74 C519.09,572.18 519.02,572.00 516.55,572.00 C514.14,572.00 514.00,572.28 514.00,577.33 C514.00,583.07 514.53,584.23 516.95,583.77 C518.09,583.56 518.58,581.97 518.80,577.74 ZM 547.80 577.75 L 548.10 572.00 L 545.05 572.00 C542.03,572.00 542.00,572.05 542.00,577.33 C542.00,583.28 542.50,584.22 545.46,583.79 C547.20,583.54 547.54,582.66 547.80,577.75 ZM 677.00 569.50 L 677.00 555.00 L 615.50 555.00 L 554.00 555.00 L 554.00 569.50 L 554.00 584.00 L 615.50 584.00 L 677.00 584.00 L 677.00 569.50 ZM 498.00 573.65 C498.00,572.49 496.73,572.14 492.50,572.14 C487.65,572.14 487.00,572.38 487.00,574.17 C487.00,575.31 487.82,576.40 488.91,576.69 C489.96,576.96 491.06,578.10 491.35,579.23 C491.85,581.16 492.06,581.10 494.94,578.21 C496.62,576.53 498.00,574.48 498.00,573.65 ZM 386.98 573.75 C387.00,572.31 386.10,572.00 382.00,572.00 C377.33,572.00 377.00,572.17 377.00,574.50 C377.00,576.29 377.54,577.00 378.89,577.00 C379.93,577.00 381.06,577.72 381.40,578.60 C381.93,579.97 382.36,579.87 384.49,577.85 C385.85,576.56 386.97,574.71 386.98,573.75 ZM 396.39 578.42 C396.73,577.55 397.00,575.75 397.00,574.42 C397.00,572.51 396.48,572.00 394.50,572.00 C392.33,572.00 392.00,572.44 392.00,575.33 C392.00,577.17 392.30,578.97 392.67,579.33 C393.85,580.52 395.77,580.04 396.39,578.42 ZM 425.00 573.76 C425.00,572.29 424.39,571.94 422.25,572.18 C419.39,572.51 418.16,575.38 419.45,578.72 C419.96,580.07 420.42,579.96 422.53,577.98 C423.89,576.70 425.00,574.80 425.00,573.76 ZM 509.00 572.98 C509.00,572.44 507.42,572.00 505.50,572.00 C502.57,572.00 502.00,572.36 502.00,574.17 C502.00,575.37 502.75,577.17 503.66,578.18 C505.25,579.94 505.39,579.89 507.16,576.98 C508.17,575.31 509.00,573.51 509.00,572.98 ZM 533.60 578.60 C533.90,577.83 535.01,576.97 536.07,576.69 C537.20,576.40 538.00,575.32 538.00,574.09 C538.00,572.43 537.38,572.00 535.00,572.00 C533.35,572.00 532.00,572.39 532.00,572.88 C532.00,573.36 531.72,575.16 531.38,576.88 C530.74,580.07 532.51,581.44 533.60,578.60 ZM 463.00 574.38 C463.00,572.42 462.49,572.00 460.09,572.00 C457.58,572.00 457.26,572.31 457.74,574.25 C458.04,575.49 458.73,577.07 459.28,577.76 C460.68,579.55 463.00,577.44 463.00,574.38 ZM 473.00 573.85 C473.00,572.46 472.25,572.00 470.00,572.00 C467.54,572.00 467.00,572.41 467.00,574.30 C467.00,577.88 468.99,579.32 471.19,577.33 C472.18,576.43 473.00,574.86 473.00,573.85 ZM 442.47 576.38 C444.64,574.22 443.93,572.57 440.67,572.18 C438.43,571.92 438.00,572.25 438.00,574.27 C438.00,578.24 439.78,579.08 442.47,576.38 ZM 416.82 574.25 C417.09,572.34 416.68,572.00 414.07,572.00 C411.44,572.00 411.00,572.37 411.00,574.57 C411.00,576.78 411.38,577.09 413.75,576.82 C415.72,576.59 416.59,575.86 416.82,574.25 ZM 529.44 576.09 C530.52,574.35 528.77,572.00 526.39,572.00 C524.51,572.00 524.00,572.53 524.00,574.50 C524.00,576.48 524.50,577.00 526.44,577.00 C527.78,577.00 529.14,576.59 529.44,576.09 ZM 372.80 561.25 L 373.10 555.00 L 370.05 555.00 L 367.00 555.00 L 367.00 560.83 C367.00,567.29 367.46,568.22 370.46,567.79 C372.23,567.54 372.54,566.66 372.80,561.25 ZM 380.80 561.24 C381.07,555.61 380.90,555.00 379.14,555.00 C377.44,555.00 377.13,555.82 376.84,561.09 C376.47,567.70 376.63,568.22 378.95,567.77 C380.11,567.55 380.57,565.92 380.80,561.24 ZM 387.80 561.24 C388.07,555.52 387.92,555.00 386.05,555.00 C384.19,555.00 384.00,555.62 384.00,561.57 C384.00,567.29 384.23,568.10 385.75,567.81 C387.15,567.55 387.56,566.25 387.80,561.24 ZM 396.80 561.25 C397.09,555.14 397.04,555.00 394.55,555.00 C392.08,555.00 392.00,555.20 392.00,561.57 C392.00,567.81 392.11,568.12 394.25,567.82 C396.27,567.53 396.53,566.86 396.80,561.25 ZM 406.80 561.25 L 407.10 555.00 L 404.05 555.00 L 401.00 555.00 L 401.00 560.83 C401.00,567.29 401.46,568.22 404.46,567.79 C406.23,567.54 406.54,566.66 406.80,561.25 ZM 415.80 561.25 C416.09,555.14 416.04,555.00 413.55,555.00 C411.08,555.00 411.00,555.20 411.00,561.57 C411.00,567.81 411.11,568.12 413.25,567.82 C415.27,567.53 415.53,566.86 415.80,561.25 ZM 424.80 561.25 C425.09,555.14 425.04,555.00 422.55,555.00 C420.08,555.00 420.00,555.20 420.00,561.57 C420.00,567.81 420.11,568.12 422.25,567.82 C424.27,567.53 424.53,566.86 424.80,561.25 ZM 434.80 561.25 L 435.10 555.00 L 432.05 555.00 L 429.00 555.00 L 429.00 560.83 C429.00,567.29 429.46,568.22 432.46,567.79 C434.23,567.54 434.54,566.66 434.80,561.25 ZM 443.80 561.25 C444.09,555.14 444.04,555.00 441.55,555.00 C439.08,555.00 439.00,555.20 439.00,561.57 C439.00,567.81 439.11,568.12 441.25,567.82 C443.27,567.53 443.53,566.86 443.80,561.25 ZM 452.80 561.24 C453.09,555.14 453.04,555.00 450.55,555.00 C448.11,555.00 448.00,555.25 448.00,560.83 C448.00,567.06 448.50,568.24 450.95,567.77 C452.11,567.55 452.57,565.92 452.80,561.24 ZM 462.80 561.25 L 463.10 555.00 L 460.05 555.00 L 457.00 555.00 L 457.00 560.83 C457.00,567.29 457.46,568.22 460.46,567.79 C462.23,567.54 462.54,566.66 462.80,561.25 ZM 472.44 561.25 L 472.67 555.00 L 469.83 555.00 C467.05,555.00 467.00,555.09 467.00,560.83 C467.00,567.23 467.48,568.23 470.32,567.79 C471.92,567.55 472.25,566.52 472.44,561.25 ZM 482.80 561.25 L 483.10 555.00 L 480.05 555.00 L 477.00 555.00 L 477.00 560.83 C477.00,567.29 477.46,568.22 480.46,567.79 C482.23,567.54 482.54,566.66 482.80,561.25 ZM 490.80 561.24 C491.07,555.52 490.92,555.00 489.05,555.00 C487.19,555.00 487.00,555.62 487.00,561.57 C487.00,567.29 487.23,568.10 488.75,567.81 C490.15,567.55 490.56,566.25 490.80,561.24 ZM 498.00 561.50 C498.00,555.67 497.79,555.00 496.00,555.00 C494.23,555.00 494.00,555.67 494.00,560.83 C494.00,566.88 494.42,568.00 496.67,568.00 C497.64,568.00 498.00,566.25 498.00,561.50 ZM 507.00 561.50 C507.00,555.23 506.91,555.00 504.50,555.00 C502.09,555.00 502.00,555.23 502.00,561.50 C502.00,567.77 502.09,568.00 504.50,568.00 C506.91,568.00 507.00,567.77 507.00,561.50 ZM 518.80 561.24 C519.09,555.14 519.04,555.00 516.55,555.00 C514.11,555.00 514.00,555.25 514.00,560.83 C514.00,567.06 514.50,568.24 516.95,567.77 C518.11,567.55 518.57,565.92 518.80,561.24 ZM 528.58 563.00 C528.70,556.48 528.11,555.00 525.38,555.00 C523.14,555.00 523.00,555.35 523.00,560.83 C523.00,567.29 523.46,568.22 526.46,567.79 C528.15,567.55 528.51,566.73 528.58,563.00 ZM 537.80 561.25 L 538.10 555.00 L 535.05 555.00 L 532.00 555.00 L 532.00 560.83 C532.00,567.29 532.46,568.22 535.46,567.79 C537.23,567.54 537.54,566.66 537.80,561.25 ZM 547.80 561.25 L 548.10 555.00 L 545.05 555.00 L 542.00 555.00 L 542.00 560.83 C542.00,567.29 542.46,568.22 545.46,567.79 C547.23,567.54 547.54,566.66 547.80,561.25 ZM 709.71 587.38 C709.32,586.99 709.00,578.64 709.00,568.83 L 709.00 551.00 L 712.52 551.00 L 716.05 551.00 L 715.77 569.25 L 715.50 587.50 L 712.96 587.80 C711.57,587.96 710.10,587.77 709.71,587.38 ZM 720.00 569.56 L 720.00 551.00 L 723.52 551.00 L 727.05 551.00 L 726.77 569.25 L 726.50 587.50 L 723.25 587.81 L 720.00 588.13 L 720.00 569.56 ZM 730.71 587.38 C730.32,586.99 730.00,578.64 730.00,568.83 L 730.00 551.00 L 733.52 551.00 L 737.05 551.00 L 736.77 569.25 L 736.50 587.50 L 733.96 587.80 C732.57,587.96 731.10,587.77 730.71,587.38 ZM 741.70 587.36 C741.31,586.98 741.00,578.64 741.00,568.83 L 741.00 551.00 L 762.95 551.00 L 784.90 551.00 L 783.94 553.75 C783.41,555.26 779.49,563.47 775.24,572.00 L 767.50 587.50 L 754.95 587.78 C748.04,587.93 742.08,587.74 741.70,587.36 ZM 248.83 572.26 C246.61,567.44 244.15,562.26 243.37,560.75 L 241.95 558.00 L 300.01 558.00 L 358.07 558.00 L 357.78 569.25 L 357.50 580.50 L 305.19 580.76 L 252.88 581.02 L 248.83 572.26 ZM 233.90 536.28 C230.49,528.30 223.32,504.08 221.07,492.93 C217.34,474.37 215.92,461.03 215.35,439.00 C214.00,387.35 224.86,338.24 247.75,292.50 C249.68,288.65 251.76,285.17 252.38,284.77 C258.46,280.78 273.77,291.81 284.33,307.78 C292.99,320.90 298.22,333.63 302.28,351.50 C304.21,359.97 304.37,364.96 305.02,437.00 C305.49,487.99 306.10,515.12 306.85,518.37 C307.47,521.05 309.28,526.99 310.86,531.58 C312.44,536.17 313.50,540.17 313.20,540.46 C312.91,540.76 295.40,541.00 274.30,541.00 L 235.93 541.00 L 233.90 536.28 ZM 325.53 538.68 C322.79,534.50 319.21,524.63 317.59,516.79 C316.23,510.21 316.00,499.61 315.99,444.29 C315.99,408.66 315.53,374.41 314.98,368.19 C311.86,332.91 299.58,304.76 279.00,285.70 L 272.15 279.37 L 277.62 266.43 C284.74,249.59 298.62,221.85 300.73,220.25 C303.49,218.16 306.95,218.82 313.22,222.63 C322.95,228.54 331.43,236.41 339.24,246.78 C350.55,261.80 357.69,277.50 362.30,297.50 C364.31,306.20 364.39,309.95 364.97,410.00 C365.55,511.49 365.60,513.65 367.68,521.00 C368.84,525.12 370.93,531.05 372.31,534.17 C373.69,537.29 374.56,540.11 374.24,540.42 C373.93,540.74 363.18,541.00 350.36,541.00 C327.08,541.00 327.04,541.00 325.53,538.68 ZM 386.18 538.25 C383.36,534.27 379.07,523.65 377.22,516.06 C375.83,510.36 375.54,495.85 374.98,405.50 C374.41,312.78 374.16,300.75 372.65,294.60 C367.88,275.06 359.17,255.74 348.98,242.12 C343.54,234.84 330.19,221.21 325.10,217.74 L 322.70 216.10 L 328.77 209.30 C332.11,205.56 342.28,195.13 351.37,186.12 C365.44,172.17 368.24,169.83 370.20,170.36 C371.46,170.70 372.79,170.98 373.14,170.99 C373.49,170.99 376.73,175.39 380.33,180.75 C391.76,197.75 401.08,219.75 404.99,238.97 C406.94,248.51 407.00,252.62 407.00,371.95 C407.00,508.18 406.76,502.78 413.44,517.44 C415.28,521.47 419.05,528.14 421.84,532.26 C424.62,536.39 426.62,540.04 426.28,540.38 C425.94,540.72 417.22,541.00 406.90,541.00 L 388.14 541.00 L 386.18 538.25 ZM 598.00 540.36 C598.00,540.01 600.43,535.84 603.40,531.11 C608.73,522.62 610.10,519.86 614.35,509.00 L 616.50 503.50 L 617.04 375.00 L 617.58 246.50 L 619.80 238.00 C625.30,216.99 635.67,193.67 645.81,179.50 C651.35,171.76 651.67,171.50 655.59,171.50 C659.55,171.50 660.13,171.99 681.34,193.65 L 703.04 215.80 L 698.27 219.31 C690.39,225.12 677.63,238.94 671.57,248.26 C662.27,262.54 656.45,276.46 651.83,295.50 C649.67,304.37 649.63,306.01 649.04,408.00 L 648.45 511.50 L 645.71 520.30 C644.21,525.13 641.63,531.77 639.98,535.05 L 636.97 541.00 L 617.49 541.00 C606.77,541.00 598.00,540.71 598.00,540.36 ZM 650.30 539.25 C650.59,538.29 652.25,533.45 653.99,528.50 C659.77,511.99 659.96,508.12 659.98,404.36 C660.00,300.95 659.85,303.89 666.21,284.00 C673.73,260.46 688.53,239.28 706.29,226.62 C714.76,220.59 719.21,218.59 722.40,219.39 C724.58,219.93 726.31,222.65 732.88,235.77 C742.10,254.20 752.25,277.61 751.81,279.42 C751.64,280.12 749.04,282.69 746.04,285.13 C734.65,294.37 721.62,315.48 715.56,334.50 C708.45,356.84 708.75,352.82 707.97,435.50 C707.38,498.78 707.02,511.52 705.68,517.00 C703.78,524.82 700.81,533.52 698.58,537.84 L 696.95 541.00 L 673.36 541.00 C651.35,541.00 649.80,540.88 650.30,539.25 ZM 709.74 540.41 C709.42,540.08 710.01,537.80 711.07,535.34 C712.13,532.88 713.97,527.40 715.16,523.18 C717.27,515.72 717.35,513.39 718.00,440.50 C718.64,367.88 718.73,365.18 720.89,355.50 C727.80,324.50 740.91,301.13 758.23,288.98 C764.12,284.84 766.09,283.96 768.97,284.20 C772.44,284.49 772.62,284.74 779.10,297.84 C790.91,321.73 800.36,351.91 805.60,382.50 C808.78,401.06 810.01,439.92 808.07,460.56 C805.73,485.49 797.90,518.86 790.44,535.73 L 788.11 541.00 L 749.22 541.00 C727.83,541.00 710.07,540.73 709.74,540.41 ZM 557.67 580.34 C557.30,579.97 557.00,574.79 557.00,568.83 L 557.00 558.00 L 615.53 558.00 L 674.07 558.00 L 673.78 569.25 L 673.50 580.50 L 615.92 580.76 C584.26,580.90 558.05,580.71 557.67,580.34 Z" fill="rgb(251,252,252)"/>
</g>
</svg>